<svg xmlns="http://www.w3.org/2000/svg" width="300" height="300" version="1.0" viewBox="0 0 225 225"><path d="M94.7 30.7c-.4.3-.7 3.7-.7 7.4 0 6.4-.1 6.7-2.6 7.3-1.5.4-2.8.6-2.9.4-.1-.2-1.7-2.8-3.6-5.8-1.8-3-3.3-5.6-3.4-5.7-.5-.8-8.5 3.2-8.2 4.1.3.6 1 3.7 1.7 6.9 1.2 5.3 1.2 5.8-.6 7.1-1.7 1.3-2.4 1-7.2-3.6-5.6-5.3-5.2-5.3-10.5-.9-1.6 1.3-1.5 1.8 1.7 7.7 3.4 6 3.4 6.3 1.6 7.9-1.8 1.6-2.2 1.5-8.1-1.6l-6.2-3.3-2.3 2.9c-1.3 1.7-2.4 3.4-2.4 4 0 .5 2.1 3 4.6 5.6 4 4.1 4.5 4.9 3.5 6.8-1.4 2.5-1.1 2.5-8.1.6-3-.8-5.8-1.5-6.2-1.5-1.2 0-4 6.1-3.4 7.5.2.7 3 2.7 6 4.5 3.1 1.7 5.4 3.6 5.1 4.1-.4.5 1.9.9 5.2.9h5.8l3.3-7.1c7-14.8 21.7-26.6 38.8-30.9 13.6-3.5 26-1.9 40 5 10.5 5.1 20.7 15.5 25.6 25.9l3.3 7.1h5.8c3.3 0 5.6-.4 5.2-.9-.3-.5 1.9-2.4 5-4.1 3-1.7 5.7-3.5 6-4.1.8-1.3-1.7-7.9-3-7.9-.5 0-3.5.7-6.5 1.5-7 1.9-6.7 1.9-8.1-.6-1-1.9-.5-2.7 3.5-6.8 2.5-2.6 4.6-5.1 4.6-5.6 0-.6-1.1-2.3-2.4-4l-2.3-2.9-6.2 3.3c-5.8 3.1-6.4 3.2-8 1.7-1.8-1.6-1.7-1.9 1.5-8 3.2-5.9 3.3-6.4 1.6-7.7-5-4.2-4.7-4.3-10.4 1-4.8 4.4-5.5 4.8-7.2 3.5-1.8-1.3-1.8-1.8-.6-7.1.7-3.2 1.4-6.3 1.7-6.9.2-.6-1.4-1.8-3.7-2.7l-4-1.6-3.6 5.7c-2 3.1-3.8 5.9-4 6.1-.2.2-1.5-.1-2.8-.7-2.3-1-2.5-1.8-2.8-7.9l-.3-6.8-4.1-.3-4.1-.3-1.7 6.6c-1.7 6-2 6.5-4.6 6.5-2.5 0-2.8-.5-4.5-6.5l-1.7-6.5h-3.7c-2.1 0-4.1.3-4.4.7z"/><path d="M96 61.6c-8.9 2.4-15.8 6.3-23 13-5.5 5.3-13 16-13 18.8 0 .3 3.7.6 8.3.6h8.2l-4.3-3.8-4.3-3.7 3.4-3.4c3.4-3.2 6.2-3.6 5.1-.7-.3.8 0 1.7.6 2.1.8.5.8 1.1-.1 2.1-1 1.2-.9 1.8.4 3.1 1.5 1.5 1.6 1.5 1.1-.4-.6-2.2 1.9-4.8 3.6-3.8.7.4-.1 2.1-2.1 4.6L76.8 94h6c4.8 0 6.3-.4 7.8-2.1 7.9-9 28.9-9 36.8 0 1.5 1.7 3 2.1 7.8 2.1 6.7 0 7.2-.9 2.7-5.1-1.8-1.6-3-3.1-2.8-3.3 1.2-1.2 8-3.4 9.6-3.2 2.6.4 2.7 2.9.3 7.5l-2 4.1h7.5c4.1 0 7.5-.3 7.5-.6s-1.4-3.3-3.2-6.5c-3.8-7.3-14.6-17.7-21.9-21.2-11.5-5.6-25.5-7.1-36.9-4.1zM111.4 72c0 5.1-.2 5.5-2.5 5.8-2.3.3-2.4.1-2.4-5.5s.1-5.9 2.4-5.8c2.4 0 2.5.3 2.5 5.5zm-9.4-2.9c0 .5-.5.9-1.2.9-.6 0-.2.9 1 2 2.5 2.3 2.6 2.9 1.2 5-.9 1.3-1.2 1.3-2.4-.3-.7-.9-2.4-1.7-3.7-1.7-3.6 0-5.2-1.4-4.4-3.9.7-2.5 2-2.7 2.9-.6.6 1.7 3.6 2.1 3.6.5 0-.6-.7-1-1.5-1-2.1 0-1.9-1.8.3-2.2 2.1-.5 4.2.1 4.2 1.3zm17-1.2c0 .4 1.1.6 2.5.3 1.7-.3 2.7.1 3.1 1.2.9 2.4-.4 3.2-2.7 1.8-2.5-1.6-3.5-1-4.1 2.3-.4 1.6-.1 2.5.8 2.5.7 0 1.5.6 1.8 1.2.3.7.4.1.1-1.5-.4-2.2-.2-2.7 1.4-2.7 2.7 0 3.3 1.3 2.2 4.4-1 2.4-1.1 2.5-5.3 1.2-4.1-1.2-4.3-1.4-4.2-4.9.1-3.6 1.8-6.7 3.5-6.7.5 0 .9.4.9.9zM91.3 78.3c.1.7.6 1.5 1.1 1.8 2.2 1.6-3.6 1.9-6.6.3-3.3-1.7-3.3-1.7-1.5.3 1.9 2.1 2.2 3.9.8 4.7-1 .7-5.7-6.3-5.6-8.4 0-2.1 3.2-2.4 6.1-.5l2.5 1.6-1.7-2.6c-1.4-2.2-1.5-2.8-.4-3.5 1-.6 1.9 0 3.2 2.1 1 1.7 1.9 3.5 2.1 4.2zm42.7-2.6c0 2.5.1 2.6 1.3.8 2.6-3.4 3.9-.7 1.7 3.5-2.3 4.5-3.2 5.2-5.4 4.4-1-.4-1.6-1.8-1.6-3.8-.1-3-.1-3-1.3-.9-.8 1.5-1.7 1.9-2.6 1.4-1.1-.7-.9-1.8 1.3-5.5 2.3-4 2.9-4.5 4.6-3.6 1.2.7 2 2.1 2 3.7zm-36.2.9c3.2.9 2.7 2.4-.7 2.4-3 0-4.6-1.2-3.4-2.4.8-.7 1.2-.7 4.1 0z"/><path d="M71.6 85.2c.7 1.1 3.2 1 3.9-.2.3-.6-.4-.9-1.9-.8-1.3.1-2.2.6-2 1zM141 87.1c0 .5.5.7 1 .4.6-.3 1-.8 1-1.1 0-.2-.4-.4-1-.4-.5 0-1 .5-1 1.1zM23 99c0 .7 29.3 1 86 1s86-.3 86-1-29.3-1-86-1-86 .3-86 1zM145.4 106.5c-1.8 1.4-1.8 1.4.3 1.5 2.3 0 3.9-1.5 2.5-2.4-.5-.3-1.8.1-2.8.9zM20 110.5c0 .8.7 1.5 1.5 1.5 1.1 0 1.5 1.2 1.5 4.5 0 3.8.3 4.5 2 4.5s2-.7 2-4.5c0-3.3.4-4.5 1.5-4.5.8 0 1.5-.7 1.5-1.5 0-1.1-1.2-1.5-5-1.5s-5 .4-5 1.5zM34.3 110.7c-.3 1-1.2 3.3-1.9 5.2-1.8 4.3-1.7 5.1.1 5.1 2 0 3.8-4.7 3.1-8.5-.5-2.9-.4-2.9 1.1.5 1 2.3 1.1 3.6.4 3.8-2.3.8-1 3 2.1 3.6 1.7.3 3.3.4 3.6.1.2-.2-.5-2.9-1.8-6-2.3-5.7-5.4-7.4-6.7-3.8zM45 114.9c0 4.7.3 6.1 1.5 6.1 3.1 0 3.4-11.2.3-11.8-1.6-.3-1.8.5-1.8 5.7zM56 115c0 5.3.2 6 2 6s2-.7 2-6-.2-6-2-6-2 .7-2 6zM67 115c0 5.3.2 6 2 6 1.5 0 2-.7 2-2.5s.5-2.5 2-2.5c1.1 0 2-.5 2-1 0-.6-.9-1-2-1-1.5 0-2-.7-2-2.5s-.5-2.5-2-2.5c-1.8 0-2 .7-2 6zM72 109.9c0 1 2.4 2.1 4.6 2.1.8 0 1.4-.7 1.4-1.5 0-1-1-1.5-3-1.5-1.6 0-3 .4-3 .9zM80 115.1c0 5.2.2 5.9 2 5.9 1.3 0 2-.7 2-2 0-1.4.6-2 2.3-1.9 1.2 0 1.7.3 1 .5-1.7.7-.4 3.4 1.6 3.4 1.2 0 1.6-1.1 1.8-4.7.2-6-.8-7.2-6.3-7.1l-4.4.1v5.8zm7-2.1c0 1.1-.7 2-1.5 2s-1.5-.9-1.5-2 .7-2 1.5-2 1.5.9 1.5 2zM98 109.4c0 .3 1.4 2.7 3.1 5.5 2.5 4 3.5 4.9 4.5 4 .8-.6 1.4-2.6 1.3-4.3 0-1.7-.3-2.5-.6-1.9-.7 2-1.9 1.5-3.1-1.2-.7-1.5-2-2.5-3.2-2.5-1.1 0-2 .2-2 .4zM108 115c0 5.3.2 6 2 6s2-.7 2-6-.2-6-2-6-2 .7-2 6zM114 115c0 5.3.2 6 2 6 1.5 0 2-.7 2-2.5s.5-2.5 2-2.5c1.1 0 2-.5 2-1 0-.6-.9-1-2-1-1.5 0-2-.7-2-2.5s-.5-2.5-2-2.5c-1.8 0-2 .7-2 6zM119 109.9c0 1 2.4 2.1 4.6 2.1.8 0 1.4-.7 1.4-1.5 0-1-1-1.5-3-1.5-1.6 0-3 .4-3 .9zM127.8 110.7c-2.2 2.4-2.3 6.2-.4 8.9 2.1 2.8 2.7 1.4 2.4-5.1-.3-5.5-.4-5.7-2-3.8zM131 109.5c0 .9 4 4.5 5 4.5 1.4 0 1.3-2.3-.2-3.8-1.2-1.2-4.8-1.7-4.8-.7z"/><path d="M141.5 112.7c-2.7 6.3-2.9 8.3-1.1 8.3 2.2 0 3.8-4.5 3.1-8.4l-.6-3.1 1.6 3.5c1 2.2 1.2 3.6.5 3.8-2.1.7-.9 3.1 2.1 3.7 1.7.4 3.2.5 3.5.2.2-.2-.5-2.9-1.7-6.1-2.6-6.8-5.1-7.5-7.4-1.9zM154.1 111.2c3.4 6.5 6.1 9.8 7.8 9.8 1.7 0 1.5-.7-1.6-6-2.4-4-4.2-6-5.5-6-1.6 0-1.7.3-.7 2.2zM161 112.2c0 1.8.7 4.2 1.5 5.2 1.4 1.8 1.5 1.6 1.5-3.2 0-4-.4-5.2-1.5-5.2-1 0-1.5 1-1.5 3.2zM166.5 115c0 5.7.1 6 2.5 6s2.5-.3 2.5-6c.1-5.8 0-6-2.5-6s-2.6.2-2.5 6zM175 110.4c-1.4 1.4-1.3 8.2.3 9.3 1.8 1.4 6.8 1.5 8.3.2 2-1.6 1.7-2.9-.6-2.9-1.1 0-2 .4-2 1 0 .5-.7 1-1.5 1-1.1 0-1.5-1.1-1.5-4s.4-4 1.5-4c.8 0 1.5.7 1.5 1.5s.9 1.5 2 1.5c2.2 0 2.7-2.2.7-3.8-1.6-1.4-7.3-1.2-8.7.2zM188.1 110.4c-1.7 2.1-1 8.7 1.1 10 2.1 1.3 3.6 0 2-1.6-1.5-1.5-1.6-6.4-.2-7.3.6-.3 1-1 1-1.6 0-1.4-2.6-1.1-3.9.5zM193.5 115c0 6 .9 7.2 3.3 4.8 2.6-2.6.9-10.8-2.2-10.8-.7 0-1.1 2.5-1.1 6zM98 116.3c0 3.5.4 4.7 1.5 4.7 2 0 1.9-4.8 0-7.4-1.4-1.8-1.5-1.6-1.5 2.7zM153 116.3c0 3.5.4 4.7 1.5 4.7 2 0 1.9-4.8 0-7.4-1.4-1.8-1.5-1.6-1.5 2.7zM50.3 118.5c-1.9 2.1-1.6 2.5 1.7 2.5 2.3 0 3-.4 3-2 0-2.3-2.9-2.6-4.7-.5zM62.2 118.2c-1.9 1.9-1.4 2.8 1.3 2.8 1.8 0 2.5-.5 2.5-2 0-2.2-2-2.6-3.8-.8zM73.3 118.5c-1.9 2.1-1.6 2.5 1.8 2.5 2.4 0 3-.4 2.7-1.7-.4-2.3-2.9-2.7-4.5-.8zM120.3 118.5c-1.9 2.1-1.6 2.5 1.8 2.5 2.4 0 3-.4 2.7-1.7-.4-2.3-2.9-2.7-4.5-.8zM132.8 118.4c-1 .7-1.8 1.6-1.8 2 0 1.1 3.5.7 4.8-.6 2.7-2.7.2-3.9-3-1.4zM23 131c0 .7 29.3 1 86 1s86-.3 86-1-29.3-1-86-1-86 .3-86 1zM34.8 137.7c-2.1 1.4-3.8 3-3.8 3.5 0 1.4 3 6.8 3.8 6.8.9-.1 9.1-1.9 11.4-2.6 1-.3 2.1.3 2.8 1.6 1 1.8.5 2.7-3.4 7.1-2.5 2.8-4.6 5.4-4.6 5.8 0 .3 1.1 1.9 2.4 3.6l2.4 3 6.2-3.4c5.8-3.2 6.2-3.2 8-1.6 1.9 1.7 1.9 1.9-1.6 8.1l-3.5 6.2 3.6 2.8 3.6 2.7 5.2-5.1c4.7-4.6 5.4-5 7.1-3.7 1.8 1.4 1.8 1.8.4 8.4l-1.5 7 4 1.6c2.2.9 4 1.5 4.2 1.3.1-.2 1.7-2.9 3.6-6.1 3.6-6 3.9-6.3 7-4.7 1.6.9 1.9 2.2 1.9 8v7h8.8l1.7-6.5c1.7-6 2-6.5 4.5-6.5 2.6 0 2.9.5 4.5 6.5l1.8 6.5h8.7v-7c0-6.5.2-7.1 2.5-8.2 1.4-.6 2.7-.9 2.9-.7.2.2 1.9 3 4 6.2l3.6 5.7 3.7-1.5c2-.9 3.8-1.7 4-1.8.1-.2-.4-2.7-1.2-5.7-2-7.4-1.9-8.7.6-9.5 1.7-.6 3.2.3 7 4.1l4.8 4.7 3.6-2.7 3.6-2.8-3.5-6.3c-3.4-6.1-3.4-6.4-1.6-8 1.8-1.6 2.2-1.5 8.1 1.6l6.1 3.3 2.4-2.8c1.3-1.5 2.4-3.2 2.4-3.7s-2.1-3.2-4.6-5.9c-4.1-4.4-4.5-5.2-3.3-6.7.7-1 1.4-1.9 1.4-2 0-.1 2.7.5 6 1.3 8 1.8 7.9 1.9 9.3-1.9 1.6-4.4 1.7-4.1-2.8-7.1-3.4-2.3-5-2.6-12-2.6h-8l-2.1 4.2c-11.6 23-38.6 35.8-64 30.4-15.1-3.2-30.3-14.4-38.3-28l-3.9-6.6-8.1.1c-7 0-8.6.4-11.8 2.6z"/><path d="M62 135.7c0 3.7 11.4 16.4 19 21.3 10.6 6.8 26.6 9.7 38.9 7 8.5-1.8 19-7.3 24.9-12.9 4.8-4.7 11.2-13.4 11.2-15.3 0-.4-6.7-.8-14.9-.8-13.8 0-15.3.2-20.3 2.5-3.9 1.8-7 2.5-11.8 2.5-4.8 0-7.9-.7-11.8-2.5-5-2.3-6.5-2.5-20.3-2.5-8.2 0-14.9.3-14.9.7zm42.5 10.3c2.1 2.2 3.5 4.3 3.1 4.7-.3.4-2.8-1.4-5.4-4-2.8-2.8-4.1-4.7-3.1-4.7.8 0 3.2 1.8 5.4 4zm11.6-2.6c-1.3 1.6.2 3.2 1.9 2.1.6-.3 1-.1 1 .5 0 1.8-3.1 2.4-4.6.8-1.7-1.7-.9-4.8 1.3-4.8 1.2 0 1.3.3.4 1.4zm-1.7 4.5c.7 1-2.2 3.7-3 2.8-.9-.8.3-3.7 1.5-3.7.5 0 1.2.4 1.5.9zm3 9c2.4 2.5 2.7 3.3 1.6 4.6-1.9 2.2-3.3 1.9-6.6-1.8-5.4-5.8-5.8-6.5-4.4-8.2 1.1-1.3 1.5-1.2 3.9.4 1.4 1.1 3.9 3.3 5.5 5zm-9.9-2c.3.5-.5 1.8-1.8 2.8-1.3 1-2.6 2.6-3 3.6-.9 2.4-3.1 1.7-3.5-1.1-.2-1.4.2-2.2 1.1-2.2.8 0 2.2-.9 3.2-2 2-2.2 3.1-2.5 4-1.1z"/><path d="M115.5 160c.4.6 1.1.8 1.6.5 1.4-.9 1.1-1.5-.7-1.5-.8 0-1.2.5-.9 1zM100 160c0 .5.5 1 1 1 .6 0 1-.5 1-1 0-.6-.4-1-1-1-.5 0-1 .4-1 1z"/></svg>